<?xml version="1.0" standalone="no"?>
<!DOCTYPE svg PUBLIC "-//W3C//DTD SVG 20010904//EN"
 "http://www.w3.org/TR/2001/REC-SVG-20010904/DTD/svg10.dtd">
<svg version="1.0" xmlns="http://www.w3.org/2000/svg"
 width="146.000000pt" height="146.000000pt" viewBox="0 0 146.000000 146.000000"
 preserveAspectRatio="xMidYMid meet">
<metadata>
Created by potrace 1.11, written by Peter Selinger 2001-2013
</metadata>
<g transform="translate(0.000000,146.000000) scale(0.100000,-0.100000)"
fill="#000000" stroke="none">
<path d="M707 1328 c-8 -13 -45 -76 -82 -140 -37 -65 -70 -118 -72 -118 -2 0
-15 8 -30 17 l-26 17 7 -57 c7 -52 5 -62 -24 -112 -34 -59 -41 -63 -60 -40
-16 19 -26 12 -35 -22 -12 -49 -18 -51 -108 -37 -45 8 -83 14 -85 14 -4 0 10
-52 30 -112 25 -73 21 -88 -21 -103 -40 -13 -50 -31 -24 -39 10 -4 31 -18 46
-31 l28 -25 -97 -167 c-53 -93 -110 -189 -126 -216 -15 -26 -28 -49 -28 -52 0
-3 327 -5 726 -5 l726 0 -25 42 c-26 46 -88 154 -117 203 -10 17 -33 57 -52
90 -19 33 -41 70 -49 83 -13 21 -11 24 31 62 l45 39 -43 17 c-49 20 -48 11
-11 132 12 39 20 74 17 77 -2 3 -36 -1 -74 -8 -90 -17 -101 -14 -115 34 -13
43 -23 48 -41 20 -10 -17 -15 -13 -49 43 -34 57 -36 65 -28 106 12 64 12 64
-16 46 -13 -9 -26 -16 -29 -16 -5 0 -33 46 -121 198 -26 45 -49 82 -51 82 -2
0 -10 -10 -17 -22z"/>
</g>
</svg>
